<?xml version="1.0" standalone="no"?><!DOCTYPE svg PUBLIC "-//W3C//DTD SVG 1.1//EN" "http://www.w3.org/Graphics/SVG/1.1/DTD/svg11.dtd"><svg t="1725256420543" class="icon" viewBox="0 0 1024 1024" version="1.1" xmlns="http://www.w3.org/2000/svg" p-id="5113" width="16" height="16" xmlns:xlink="http://www.w3.org/1999/xlink"><path d="M511.99968 0.00064a510.719681 510.719681 0 0 1 382.527761 171.647893 31.99998 31.99998 0 1 1-47.80797 42.559973A447.99972 447.99972 0 1 0 959.9994 512.00032a31.99998 31.99998 0 1 1 63.99996 0 511.99968 511.99968 0 1 1-511.99968-511.99968z m0 320.0638a31.99998 31.99998 0 0 1 31.99998 31.99998v128.44792h127.99992a31.99998 31.99998 0 1 1 0 63.99996h-127.99992v127.55192a31.99998 31.99998 0 1 1-63.99996 0V544.5123h-127.99992a31.99998 31.99998 0 0 1 0-63.99996h127.99992V352.06442a31.99998 31.99998 0 0 1 31.99998-31.99998z m439.679725-80.06395a47.99997 47.99997 0 1 1 0 95.99994 47.99997 47.99997 0 0 1 0-95.99994z" p-id="5114" fill="#8a8a8a"></path></svg>